<svg width="12" height="18" viewBox="0 0 12 18" fill="none" xmlns="http://www.w3.org/2000/svg">
<path d="M5.79999 1V17" stroke="white" stroke-width="2" stroke-linecap="round" stroke-linejoin="round"/>
<path opacity="0.4" d="M5.79999 1V17" stroke="#1A1926" stroke-width="2" stroke-linecap="round" stroke-linejoin="round"/>
<path d="M9.8 3.82349H3.8C3.05739 3.82349 2.3452 4.09617 1.8201 4.58156C1.295 5.06695 1 5.72528 1 6.41172C1 7.09816 1.295 7.75649 1.8201 8.24188C2.3452 8.72727 3.05739 8.99996 3.8 8.99996H7.8C8.54261 8.99996 9.2548 9.27265 9.7799 9.75803C10.305 10.2434 10.6 10.9017 10.6 11.5882C10.6 12.2746 10.305 12.933 9.7799 13.4184C9.2548 13.9037 8.54261 14.1764 7.8 14.1764H1" stroke="#1A1926" stroke-width="2" stroke-linecap="round" stroke-linejoin="round"/>
</svg>
