<svg width="16" height="16" viewBox="0 0 16 16" fill="none" xmlns="http://www.w3.org/2000/svg">
<path fill-rule="evenodd" clip-rule="evenodd" d="M12.5168 6.19042L13.4415 5.0361C13.8648 4.49143 14.0153 3.86172 13.8742 3.22054C13.7519 2.63764 13.3945 2.08342 12.8583 1.66297L11.5507 0.621409C10.4125 -0.286374 9.00153 -0.190818 8.19255 0.850744L7.3008 1.95824C7.20673 2.07673 7.22272 2.24682 7.33937 2.34237C7.62989 2.57771 8.19564 3.03635 8.85204 3.56849C10.0001 4.49917 11.4254 5.65465 12.1405 6.23342C12.2562 6.32706 12.4237 6.30795 12.5168 6.19042ZM10.0426 14.181H15.1043C15.5982 14.181 15.9998 14.589 15.9998 15.0907C15.9998 15.5933 15.5982 16.0004 15.1043 16.0004H10.0426C9.54874 16.0004 9.14708 15.5933 9.14708 15.0907C9.14708 14.589 9.54874 14.181 10.0426 14.181Z" fill="white"/>
<path opacity="0.4" d="M15.1045 14.181H10.0427C9.54888 14.181 9.14722 14.5891 9.14722 15.0907C9.14722 15.5933 9.54888 16.0004 10.0427 16.0004H15.1045C15.5983 16.0004 16 15.5933 16 15.0907C16 14.5891 15.5983 14.181 15.1045 14.181Z" fill="#1A1926"/>
<path d="M6.49711 3.4703L11.2936 7.34605C11.4093 7.43874 11.429 7.60883 11.3387 7.72732L5.65239 15.1367C5.29494 15.5945 4.76816 15.8534 4.20376 15.863L1.09955 15.9012C0.933997 15.9031 0.789134 15.7884 0.751507 15.6241L0.0460056 12.5567C-0.0762813 11.9929 0.0460056 11.4101 0.40346 10.9609L6.11802 3.51616C6.21021 3.39672 6.38047 3.3757 6.49711 3.4703Z" fill="#1A1926"/>
<path opacity="0.4" d="M13.4415 5.0361L12.5168 6.19042C12.4237 6.30795 12.2562 6.32706 12.1405 6.23342C11.0164 5.32373 8.13799 2.98929 7.33937 2.34237C7.22272 2.24682 7.20673 2.07673 7.3008 1.95824L8.19255 0.850744C9.00153 -0.190818 10.4125 -0.286374 11.5507 0.621409L12.8583 1.66297C13.3945 2.08342 13.7519 2.63764 13.8742 3.22054C14.0153 3.86172 13.8648 4.49143 13.4415 5.0361Z" fill="#1A1926"/>
</svg>
