<svg width="16" height="16" viewBox="0 0 16 16" fill="none" xmlns="http://www.w3.org/2000/svg">
<path d="M0 3.5576C0 1.5968 1.62419 0 3.61963 0H7.58851C9.57988 0 11.2 1.592 11.2 3.5496V12.4424C11.2 14.404 9.57581 16 7.57956 16H3.6123C1.62012 16 0 14.408 0 12.4504V11.6984V3.5576Z" fill="white"/>
<path opacity="0.25" d="M0 3.5576C0 1.5968 1.62419 0 3.61963 0H7.58851C9.57988 0 11.2 1.592 11.2 3.5496V12.4424C11.2 14.404 9.57581 16 7.57956 16H3.6123C1.62012 16 0 14.408 0 12.4504V11.6984V3.5576Z" fill="#1A1926"/>
<path d="M15.8233 7.56384L13.5466 5.23664C13.3113 4.99664 12.9327 4.99664 12.6982 5.23824C12.4644 5.47984 12.4652 5.86944 12.6997 6.10944L13.9471 7.38384H12.7511H6.0389C5.70777 7.38384 5.43896 7.65984 5.43896 7.99984C5.43896 8.34064 5.70777 8.61584 6.0389 8.61584H13.9471L12.6997 9.89024C12.4652 10.1302 12.4644 10.5198 12.6982 10.7614C12.8158 10.8822 12.9693 10.943 13.1236 10.943C13.2763 10.943 13.4298 10.8822 13.5466 10.763L15.8233 8.43664C15.9362 8.32064 16.0001 8.16384 16.0001 7.99984C16.0001 7.83664 15.9362 7.67984 15.8233 7.56384Z" fill="#1A1926"/>
</svg>
