<svg width="13" height="5" viewBox="0 0 13 5" fill="none" xmlns="http://www.w3.org/2000/svg">
<path fill-rule="evenodd" clip-rule="evenodd" d="M2 2.2C2 2.08954 2.08954 2 2.2 2C2.31046 2 2.4 2.08954 2.4 2.2C2.4 2.31046 2.31046 2.4 2.2 2.4C2.08954 2.4 2 2.31046 2 2.2ZM2.2 0C0.984974 0 0 0.984973 0 2.2C0 3.41503 0.984974 4.4 2.2 4.4C3.41503 4.4 4.4 3.41503 4.4 2.2C4.4 0.984973 3.41503 0 2.2 0ZM10.4 2.2C10.4 2.08954 10.4895 2 10.6 2C10.7105 2 10.8 2.08954 10.8 2.2C10.8 2.31046 10.7105 2.4 10.6 2.4C10.4895 2.4 10.4 2.31046 10.4 2.2ZM10.6 0C9.38497 0 8.4 0.984973 8.4 2.2C8.4 3.41503 9.38497 4.4 10.6 4.4C11.815 4.4 12.8 3.41503 12.8 2.2C12.8 0.984973 11.815 0 10.6 0Z" fill="#637085"/>
</svg>
