<svg width="15" height="18" viewBox="0 0 15 18" fill="none" xmlns="http://www.w3.org/2000/svg">
<path d="M14.3172 8.4879C13.6743 7.73722 13.3822 7.08669 13.3822 5.9815V5.60572C13.3822 4.16551 13.0508 3.23758 12.3301 2.30964C11.2193 0.868554 9.34945 0 7.51892 0H7.44108C5.64903 0 3.83774 0.828671 2.70776 2.21127C1.94773 3.15781 1.57777 4.12563 1.57777 5.60572V5.9815C1.57777 7.08669 1.3049 7.73722 0.64283 8.4879C0.155678 9.04093 0 9.75173 0 10.521C0 11.2912 0.252759 12.0206 0.760026 12.6135C1.4221 13.3243 2.35704 13.7781 3.3121 13.857C4.69484 14.0147 6.07758 14.0741 7.48044 14.0741C8.88242 14.0741 10.2652 13.9748 11.6488 13.857C12.603 13.7781 13.5379 13.3243 14.2 12.6135C14.7064 12.0206 14.96 11.2912 14.96 10.521C14.96 9.75173 14.8043 9.04093 14.3172 8.4879Z" fill="#1A1926"/>
<path opacity="0.4" d="M9.24767 15.161C8.80775 15.0671 6.12711 15.0671 5.68718 15.161C5.31111 15.2479 4.90442 15.45 4.90442 15.8931C4.92628 16.3159 5.1738 16.689 5.51664 16.9256L5.51576 16.9265C5.95918 17.2722 6.47957 17.4919 7.02444 17.5708C7.31481 17.6107 7.61043 17.6089 7.91129 17.5708C8.45529 17.4919 8.97567 17.2722 9.41909 16.9265L9.41822 16.9256C9.76106 16.689 10.0086 16.3159 10.0304 15.8931C10.0304 15.45 9.62375 15.2479 9.24767 15.161Z" fill="#1A1926"/>
<path d="M14.3172 8.4879C13.6743 7.73722 13.3822 7.08669 13.3822 5.9815V5.60572C13.3822 4.16551 13.0508 3.23758 12.3301 2.30964C11.2193 0.868554 9.34945 0 7.51892 0H7.44108C5.64903 0 3.83774 0.828671 2.70776 2.21127C1.94773 3.15781 1.57778 4.12563 1.57778 5.60572V5.9815C1.57778 7.08669 1.3049 7.73722 0.64283 8.4879C0.155678 9.04093 0 9.75173 0 10.521C0 11.2912 0.252759 12.0206 0.760026 12.6135C1.4221 13.3243 2.35704 13.7781 3.3121 13.857C4.69484 14.0147 6.07758 14.0741 7.48044 14.0741C8.88242 14.0741 10.2652 13.9748 11.6488 13.857C12.603 13.7781 13.5379 13.3243 14.2 12.6135C14.7064 12.0206 14.96 11.2912 14.96 10.521C14.96 9.75173 14.8043 9.04093 14.3172 8.4879Z" fill="#1A1926"/>
<path opacity="0.4" d="M9.24767 15.1609C8.80775 15.067 6.12711 15.067 5.68718 15.1609C5.31111 15.2478 4.90442 15.4498 4.90442 15.893C4.92628 16.3157 5.1738 16.6889 5.51664 16.9255L5.51576 16.9264C5.95918 17.272 6.47957 17.4918 7.02444 17.5707C7.31481 17.6106 7.61043 17.6088 7.91129 17.5707C8.45529 17.4918 8.97567 17.272 9.41909 16.9264L9.41822 16.9255C9.76106 16.6889 10.0086 16.3157 10.0304 15.893C10.0304 15.4498 9.62375 15.2478 9.24767 15.1609Z" fill="#1A1926"/>
</svg>
