<svg width="18" height="18" viewBox="0 0 18 18" fill="none" xmlns="http://www.w3.org/2000/svg">
<path fill-rule="evenodd" clip-rule="evenodd" d="M12.5076 2.2724C12.3421 0.994012 11.2582 0 9.9367 0H7.66341C6.341 0 5.25806 0.994012 5.09254 2.2724H3.36072C1.50741 2.2724 0.000100613 3.77619 0.000100613 5.6251V7.99269H0C3.34917e-05 7.99425 6.70293e-05 7.99582 0.000100613 7.99739V8.67669C0.000100613 8.73203 0.00700202 8.7865 0.0202447 8.83896C0.0736463 10.8955 0.169521 13.6214 0.184892 13.9603C0.247402 14.7905 0.56524 15.6296 1.06004 16.2212C1.74855 17.0515 2.59641 17.4222 3.77883 17.4222C5.41292 17.431 7.21429 17.431 8.96372 17.431C10.7202 17.431 12.4247 17.431 13.8642 17.4222C15.0299 17.4222 15.9042 17.0418 16.5839 16.2212C17.0787 15.6296 17.3965 14.7817 17.4414 13.9603C17.4509 13.7853 17.4805 12.6074 17.5141 11.2717L17.5141 11.2712L17.5142 11.2704C17.5346 10.4595 17.5564 9.59053 17.5761 8.85255C17.5918 8.79596 17.6 8.73688 17.6 8.67669V5.6251C17.6 3.77619 16.0962 2.2724 14.2482 2.2724H12.5076ZM7.66341 1.32065H9.9367C10.5284 1.32065 11.0232 1.72565 11.1711 2.2724H6.42816C6.57608 1.72565 7.07088 1.32065 7.66341 1.32065Z" fill="white"/>
<path opacity="0.4" d="M0 8C0.0440218 10.0585 0.167283 13.5793 0.184892 13.9676C0.247402 14.7978 0.56524 15.6369 1.06004 16.2286C1.74855 17.0588 2.59641 17.4295 3.77883 17.4295C5.41292 17.4383 7.21429 17.4383 8.96372 17.4383C10.7202 17.4383 12.4247 17.4383 13.8642 17.4295C15.0299 17.4295 15.9042 17.0491 16.5839 16.2286C17.0787 15.6369 17.3965 14.789 17.4414 13.9676C17.459 13.641 17.5471 9.81898 17.5999 8H0Z" fill="#2D99FF"/>
<path d="M8 11.6603V12.7996C8 13.1641 8.29583 13.4599 8.66033 13.4599C9.02483 13.4599 9.32065 13.1641 9.32065 12.7996V11.6603C9.32065 11.2958 9.02483 11 8.66033 11C8.29583 11 8 11.2958 8 11.6603Z" fill="#2D99FF"/>
<path d="M9.9366 0C11.2581 0 12.342 0.994012 12.5075 2.2724H14.2481C16.0961 2.2724 17.5999 3.77619 17.5999 5.6251V8.67669C17.5999 8.89856 17.4881 9.10547 17.3041 9.22785C15.4886 10.4296 13.3333 11.23 11.0724 11.5425C11.0415 11.5469 11.0116 11.5487 10.9817 11.5487C10.6832 11.5487 10.4164 11.3471 10.3416 11.0512C10.1638 10.3504 9.5272 9.86 8.79555 9.86C8.05423 9.86 7.42472 10.3398 7.22926 11.0548C7.14122 11.3744 6.83394 11.5786 6.50114 11.5346C4.25515 11.2212 2.10864 10.4244 0.296707 9.22785C0.110935 9.10635 0 8.89856 0 8.67669V5.6251C0 3.77619 1.50731 2.2724 3.36062 2.2724H5.09244C5.25796 0.994012 6.3409 0 7.66331 0H9.9366ZM9.9366 1.32065H7.66331C7.07078 1.32065 6.57598 1.72565 6.42806 2.2724H11.171C11.0231 1.72565 10.5283 1.32065 9.9366 1.32065Z" fill="#2D99FF"/>
</svg>
