<svg width="18" height="18" viewBox="0 0 18 18" fill="none" xmlns="http://www.w3.org/2000/svg">
<path fill-rule="evenodd" clip-rule="evenodd" d="M8.15367 1.65C4.56137 1.65 1.65 4.56137 1.65 8.15367C1.65 11.746 4.56138 14.6573 8.15367 14.6573C9.87767 14.6573 11.4436 13.9876 12.6082 12.8924C13.8707 11.7051 14.6573 10.022 14.6573 8.15367C14.6573 4.56144 11.7452 1.65 8.15367 1.65ZM0 8.15367C0 3.65011 3.65011 0 8.15367 0C12.6564 0 16.3073 3.65005 16.3073 8.15367C16.3073 10.1985 15.5539 12.0681 14.3111 13.4987L16.8614 16.2097C17.1736 16.5416 17.1576 17.0637 16.8258 17.3759C16.4939 17.6881 15.9718 17.6721 15.6596 17.3403L13.1091 14.6291C11.7359 15.6813 10.0172 16.3073 8.15367 16.3073C3.65011 16.3073 0 12.6572 0 8.15367Z" fill="#1A1926"/>
<path d="M4.77049 9.90007C4.53292 9.39998 4.39999 8.84055 4.39999 8.25007C4.39999 6.84959 5.14776 5.62377 6.26582 4.95007" stroke="white" stroke-width="1.5" stroke-linecap="round"/>
<path opacity="0.4" d="M4.77049 9.90007C4.53292 9.39998 4.39999 8.84055 4.39999 8.25007C4.39999 6.84959 5.14776 5.62377 6.26582 4.95007" stroke="#1A1926" stroke-width="1.5" stroke-linecap="round"/>
</svg>
