<svg width="17" height="18" viewBox="0 0 17 18" fill="none" xmlns="http://www.w3.org/2000/svg">
<path fill-rule="evenodd" clip-rule="evenodd" d="M15.7541 10.1904C16.0688 10.3576 16.3116 10.6216 16.4825 10.8856C16.8153 11.4312 16.7883 12.1 16.4645 12.6896L15.835 13.7456C15.5023 14.3088 14.8817 14.6608 14.2432 14.6608C13.9284 14.6608 13.5777 14.5728 13.2899 14.3968C13.0561 14.2472 12.7863 14.1944 12.4985 14.1944C11.6082 14.1944 10.8618 14.9248 10.8348 15.796C10.8348 16.808 10.0074 17.6 8.97317 17.6H7.75009C6.70688 17.6 5.8795 16.808 5.8795 15.796C5.86152 14.9248 5.11508 14.1944 4.22475 14.1944C3.92797 14.1944 3.65818 14.2472 3.43335 14.3968C3.14556 14.5728 2.78583 14.6608 2.48006 14.6608C1.83255 14.6608 1.21202 14.3088 0.87927 13.7456L0.258737 12.6896C-0.0740119 12.1176 -0.0919984 11.4312 0.240751 10.8856C0.384643 10.6216 0.654439 10.3576 0.960209 10.1904C1.21202 10.0672 1.3739 9.8648 1.52678 9.6272C1.97644 8.8704 1.70665 7.876 0.942223 7.4272C0.0518933 6.9256 -0.23589 5.808 0.276724 4.9368L0.87927 3.8984C1.40088 3.0272 2.51604 2.7192 3.41536 3.2296C4.19777 3.652 5.214 3.3704 5.67266 2.6224C5.81655 2.376 5.89749 2.112 5.8795 1.848C5.86152 1.5048 5.96044 1.1792 6.13131 0.9152C6.46406 0.3696 7.06661 0.0176 7.72311 0H8.99116C9.65666 0 10.2592 0.3696 10.592 0.9152C10.7538 1.1792 10.8618 1.5048 10.8348 1.848C10.8168 2.112 10.8977 2.376 11.0416 2.6224C11.5003 3.3704 12.5165 3.652 13.3079 3.2296C14.1982 2.7192 15.3224 3.0272 15.835 3.8984L16.4375 4.9368C16.9592 5.808 16.6714 6.9256 15.7721 7.4272C15.0076 7.876 14.7378 8.8704 15.1965 9.6272C15.3404 9.8648 15.5023 10.0672 15.7541 10.1904Z" fill="white"/>
<path d="M8.3706 11.2905C6.95867 11.2905 5.81653 10.1905 5.81653 8.80888C5.81653 7.42728 6.95867 6.31848 8.3706 6.31848C9.78254 6.31848 10.8977 7.42728 10.8977 8.80888C10.8977 10.1905 9.78254 11.2905 8.3706 11.2905Z" fill="#1A1926"/>
<path opacity="0.25" d="M16.4825 10.8856C16.3116 10.6216 16.0688 10.3576 15.7541 10.1904C15.5023 10.0672 15.3404 9.8648 15.1965 9.6272C14.7378 8.8704 15.0076 7.876 15.7721 7.4272C16.6714 6.9256 16.9592 5.808 16.4376 4.9368L15.835 3.8984C15.3224 3.0272 14.1982 2.7192 13.3079 3.2296C12.5165 3.652 11.5003 3.3704 11.0416 2.6224C10.8977 2.376 10.8168 2.112 10.8348 1.848C10.8618 1.5048 10.7538 1.1792 10.592 0.9152C10.2592 0.3696 9.65666 0 8.99116 0H7.72311C7.06661 0.0176 6.46406 0.3696 6.13131 0.9152C5.96044 1.1792 5.86152 1.5048 5.8795 1.848C5.89749 2.112 5.81655 2.376 5.67266 2.6224C5.214 3.3704 4.19777 3.652 3.41536 3.2296C2.51604 2.7192 1.40088 3.0272 0.87927 3.8984L0.276724 4.9368C-0.23589 5.808 0.0518933 6.9256 0.942223 7.4272C1.70665 7.876 1.97644 8.8704 1.52678 9.6272C1.3739 9.8648 1.21202 10.0672 0.960209 10.1904C0.654439 10.3576 0.384643 10.6216 0.240751 10.8856C-0.0919983 11.4312 -0.0740119 12.1176 0.258737 12.6896L0.87927 13.7456C1.21202 14.3088 1.83255 14.6608 2.48006 14.6608C2.78583 14.6608 3.14556 14.5728 3.43335 14.3968C3.65818 14.2472 3.92797 14.1944 4.22475 14.1944C5.11508 14.1944 5.86152 14.9248 5.8795 15.796C5.8795 16.808 6.70688 17.6 7.75009 17.6H8.97317C10.0074 17.6 10.8348 16.808 10.8348 15.796C10.8618 14.9248 11.6082 14.1944 12.4985 14.1944C12.7863 14.1944 13.0561 14.2472 13.2899 14.3968C13.5777 14.5728 13.9284 14.6608 14.2432 14.6608C14.8817 14.6608 15.5023 14.3088 15.835 13.7456L16.4645 12.6896C16.7883 12.1 16.8153 11.4312 16.4825 10.8856Z" fill="#1A1926"/>
</svg>
