<svg width="15" height="16" viewBox="0 0 15 16" fill="none" xmlns="http://www.w3.org/2000/svg">
<path d="M13.3146 5.99076C13.3146 6.04515 12.8882 11.4378 12.6447 13.7073C12.4922 15.1 11.5943 15.9448 10.2475 15.9688C9.21274 15.992 8.19973 16 7.20306 16C6.14492 16 5.11012 15.992 4.10567 15.9688C2.80401 15.9376 1.90537 15.076 1.76065 13.7073C1.51012 11.4298 1.09154 6.04515 1.08376 5.99076C1.07598 5.82676 1.12888 5.67077 1.23625 5.54437C1.34207 5.42758 1.49456 5.35718 1.65484 5.35718H12.7513C12.9108 5.35718 13.0555 5.42758 13.1699 5.54437C13.2765 5.67077 13.3301 5.82676 13.3146 5.99076Z" fill="white"/>
<path opacity="0.3" d="M13.3146 5.99076C13.3146 6.04515 12.8882 11.4378 12.6447 13.7073C12.4922 15.1 11.5943 15.9448 10.2475 15.9688C9.21274 15.992 8.19973 16 7.20306 16C6.14492 16 5.11012 15.992 4.10567 15.9688C2.80401 15.9376 1.90537 15.076 1.76065 13.7073C1.51012 11.4298 1.09154 6.04515 1.08376 5.99076C1.07598 5.82676 1.12888 5.67077 1.23625 5.54437C1.34207 5.42758 1.49456 5.35718 1.65484 5.35718H12.7513C12.9108 5.35718 13.0555 5.42758 13.1699 5.54437C13.2765 5.67077 13.3301 5.82676 13.3146 5.99076Z" fill="#FF6640"/>
<path d="M14.4 3.18149C14.4 2.8527 14.1409 2.59511 13.8297 2.59511H11.4971C11.0225 2.59511 10.6102 2.25752 10.5043 1.78154L10.3736 1.19836C10.1908 0.493583 9.5598 0 8.85178 0H5.54899C4.8332 0 4.20843 0.493583 4.01859 1.23676L3.89643 1.78234C3.78984 2.25752 3.37748 2.59511 2.90365 2.59511H0.571083C0.259088 2.59511 0 2.8527 0 3.18149V3.48548C0 3.80627 0.259088 4.07186 0.571083 4.07186H13.8297C14.1409 4.07186 14.4 3.80627 14.4 3.48548V3.18149Z" fill="#FF6640"/>
</svg>
